HIERARCHY
ROOT SpineBase
{
  OFFSET 0.000000 0.000000 0.000000
  CHANNELS 6 Xposition Yposition Zposition Zrotation Xrotation Yrotation
  JOINT SpineMid
  {
    OFFSET -0.000000 33.994705 0.000000
    CHANNELS 3 Zrotation Xrotation Yrotation
    JOINT SpineShoulder
    {
      OFFSET -0.099915 25.469898 -0.953273
      CHANNELS 3 Zrotation Xrotation Yrotation
      JOINT Neck
      {
        OFFSET -0.089238 8.504666 -0.689745
        CHANNELS 3 Zrotation Xrotation Yrotation
        JOINT Head
        {
          OFFSET 0.425181 11.758394 3.208858
          CHANNELS 3 Zrotation Xrotation Yrotation
          End Site
          {
            OFFSET 0 0 0
          }
        }
      }
      JOINT ShoulderLeft
      {
        OFFSET -14.712186 -6.185034 -4.256990
        CHANNELS 3 Zrotation Xrotation Yrotation
        JOINT ElbowLeft
        {
          OFFSET -4.397124 -22.610757 6.393415
          CHANNELS 3 Zrotation Xrotation Yrotation
          JOINT WristLeft
          {
            OFFSET 0.644495 -7.064939 27.680124
            CHANNELS 3 Zrotation Xrotation Yrotation
            JOINT HandLeft
            {
              OFFSET -0.006413 -1.773414 5.883908
              CHANNELS 3 Zrotation Xrotation Yrotation
              JOINT HandTipLeft
              {
                OFFSET -0.070915 -0.092162 -0.354240
                CHANNELS 3 Zrotation Xrotation Yrotation
                End Site
                {
                  OFFSET 0 0 0
                }
              }
              JOINT ThumbLeft
              {
                OFFSET 0.760129 1.928991 -1.993106
                CHANNELS 3 Zrotation Xrotation Yrotation
                End Site
                {
                  OFFSET 0 0 0
                }
              }
            }
          }
        }
      }
      JOINT ShoulderRight
      {
        OFFSET 13.345871 -4.897064 -3.010526
        CHANNELS 3 Zrotation Xrotation Yrotation
        JOINT ElbowRight
        {
          OFFSET 4.797761 -23.854523 6.613228
          CHANNELS 3 Zrotation Xrotation Yrotation
          JOINT WristRight
          {
            OFFSET -7.732720 -21.473932 5.009407
            CHANNELS 3 Zrotation Xrotation Yrotation
            JOINT HandRight
            {
              OFFSET -3.728268 -7.225798 1.960368
              CHANNELS 3 Zrotation Xrotation Yrotation
              JOINT HandTipRight
              {
                OFFSET -2.509820 -7.500539 1.172316
                CHANNELS 3 Zrotation Xrotation Yrotation
                End Site
                {
                  OFFSET 0 0 0
                }
              }
              JOINT ThumbRight
              {
                OFFSET 1.720820 -1.444514 -5.309556
                CHANNELS 3 Zrotation Xrotation Yrotation
                End Site
                {
                  OFFSET 0 0 0
                }
              }
            }
          }
        }
      }
    }
  }
  JOINT HipLeft
  {
    OFFSET -6.959201 2.259515 -3.279936
    CHANNELS 3 Zrotation Xrotation Yrotation
    JOINT KneeLeft
    {
      OFFSET -2.945615 -28.736604 -6.186626
      CHANNELS 3 Zrotation Xrotation Yrotation
      JOINT AnkleLeft
      {
        OFFSET -0.353671 -31.592482 -0.906303
        CHANNELS 3 Zrotation Xrotation Yrotation
        JOINT FootLeft
        {
          OFFSET -0.714895 -2.903620 -10.507625
          CHANNELS 3 Zrotation Xrotation Yrotation
          End Site
          {
            OFFSET 0 0 0
          }
        }
      }
    }
  }
  JOINT HipRight
  {
    OFFSET 5.910124 2.099526 -2.994516
    CHANNELS 3 Zrotation Xrotation Yrotation
    JOINT KneeRight
    {
      OFFSET 2.119634 -27.929149 -5.158425
      CHANNELS 3 Zrotation Xrotation Yrotation
      JOINT AnkleRight
      {
        OFFSET 1.129411 -33.681570 -0.067713
        CHANNELS 3 Zrotation Xrotation Yrotation
        JOINT FootRight
        {
          OFFSET -3.432842 -4.616214 -8.376509
          CHANNELS 3 Zrotation Xrotation Yrotation
          End Site
          {
            OFFSET 0 0 0
          }
        }
      }
    }
  }
}
MOTION
Frames: 8
Frame Time: 0.033333
35.779472 65.739479 210.071886 -0.223065 -0.089878 -1.444455 0.220729 0.095472 1.444096 -0.000000 0.000000 0.000000 -0.796854 -2.202551 0.283214 0.000000 0.000000 0.000000 0.408748 1.154048 -0.113376 1.654110 -14.059227 4.983891 -0.966079 13.029187 -4.493853 0.350927 -2.798833 0.900401 0.000000 0.000000 0.000000 0.000000 0.000000 0.000000 2.090889 -2.144293 0.185890 -2.085391 2.149641 -0.107626 -0.000000 0.000000 0.000000 0.431918 -0.832912 0.349403 0.000000 0.000000 0.000000 0.000000 0.000000 0.000000 0.220729 0.095472 1.444096 -0.000000 0.000000 0.000000 15.214892 -46.240273 58.125987 0.000000 0.000000 0.000000 0.220729 0.095472 1.444096 -0.398441 -0.868687 -0.031353 3.257660 -5.042558 -0.744841 0.000000 0.000000 0.000000
35.760116 65.746394 210.092216 -0.163282 -0.068097 -1.517804 0.161421 0.072398 1.517605 -0.000000 0.000000 0.000000 -1.034732 -2.123536 0.341618 0.000000 0.000000 0.000000 0.286134 1.264051 -0.168688 1.803611 -14.157649 5.080081 -0.970740 13.021214 -4.525156 0.364059 -2.800931 0.846853 0.000000 0.000000 0.000000 0.000000 0.000000 0.000000 1.640601 -2.294420 0.025965 -1.640877 2.294223 0.039749 -0.000000 0.000000 0.000000 0.608079 -1.063679 0.456770 0.000000 0.000000 0.000000 0.000000 0.000000 0.000000 0.161421 0.072398 1.517605 -0.000000 0.000000 0.000000 23.954478 -51.121318 70.020254 0.000000 0.000000 0.000000 0.161421 0.072398 1.517605 -0.398696 -1.112185 -0.040369 5.454137 -4.540138 -5.457419 0.000000 0.000000 0.000000
35.738354 65.753132 210.112130 -0.100775 -0.045855 -1.556496 0.099492 0.048575 1.556413 -0.000000 0.000000 0.000000 -1.289656 -2.018364 0.404009 0.000000 0.000000 0.000000 0.270394 1.339480 -0.187913 1.830468 -14.225605 5.118827 -0.973048 13.015187 -4.540438 0.375300 -2.795316 0.794436 0.000000 0.000000 0.000000 0.000000 0.000000 0.000000 1.369313 -2.365556 -0.067387 -1.373262 2.363267 0.123986 -0.000000 0.000000 0.000000 0.696102 -1.137867 0.496712 0.000000 0.000000 0.000000 0.000000 0.000000 0.000000 0.099492 0.048575 1.556413 -0.000000 0.000000 0.000000 22.224757 -50.116923 68.475580 0.000000 0.000000 0.000000 0.099492 0.048575 1.556413 -0.437303 -1.178106 -0.043129 6.422329 -5.389828 -6.682314 0.000000 0.000000 0.000000
35.713594 65.757404 210.138892 -0.037585 -0.020234 -1.576040 0.037015 0.021260 1.576027 -0.000000 0.000000 0.000000 -1.520323 -1.920193 0.460764 0.000000 0.000000 0.000000 0.237671 1.468199 -0.222273 1.879075 -14.342246 5.176477 -0.975571 13.005216 -4.556781 0.405209 -3.922563 1.704745 0.000000 0.000000 0.000000 0.000000 0.000000 0.000000 1.235562 -2.284706 -0.091680 -1.240199 2.282193 0.141022 -0.000000 0.000000 0.000000 0.695903 -1.055695 0.468721 0.000000 0.000000 0.000000 0.000000 0.000000 0.000000 0.037015 0.021260 1.576027 -0.000000 0.000000 0.000000 13.696961 -45.061407 56.072446 0.000000 0.000000 0.000000 0.037015 0.021260 1.576027 -0.466858 -1.181279 -0.043493 6.771556 -5.213394 -7.501448 0.000000 0.000000 0.000000
35.687461 65.757817 210.170346 0.022166 0.015672 -1.610968 -0.021717 -0.016289 1.610962 -0.000000 0.000000 0.000000 -1.738549 -1.838124 0.515034 0.000000 0.000000 0.000000 0.151056 1.444304 -0.241001 1.977671 -14.219924 5.234534 -0.982586 12.909469 -4.594985 -0.039265 -1.575372 1.438198 0.000000 0.000000 0.000000 0.000000 0.000000 0.000000 1.165349 -2.239385 -0.103820 -1.170296 2.236805 0.149445 -0.000000 0.000000 0.000000 0.555910 -0.853933 0.376949 0.000000 0.000000 0.000000 0.000000 0.000000 0.000000 -0.021717 -0.016289 1.610962 -0.000000 0.000000 0.000000 1.620018 -28.999587 29.850605 0.000000 0.000000 0.000000 -0.021717 -0.016289 1.610962 -0.477914 -1.100940 -0.040555 7.269661 -4.805292 -8.910117 0.000000 0.000000 0.000000
35.662824 65.757102 210.206071 0.072899 0.061646 -1.610626 -0.071137 -0.063670 1.610548 -0.000000 0.000000 0.000000 -1.900318 -1.781386 0.555536 0.000000 0.000000 0.000000 0.084248 1.326016 -0.235840 2.050158 -13.967475 5.274060 -0.991821 12.777475 -4.643988 0.526379 -1.502708 -0.909005 0.000000 0.000000 0.000000 0.000000 0.000000 0.000000 1.235662 -2.122967 -0.061112 -1.238774 2.121153 0.106942 -0.000000 0.000000 0.000000 -0.000000 0.000000 0.000000 0.000000 0.000000 0.000000 0.000000 0.000000 0.000000 -0.071137 -0.063670 1.610548 -0.000000 0.000000 0.000000 -1.233591 -19.433733 23.389414 0.000000 0.000000 0.000000 -0.071137 -0.063670 1.610548 -0.512019 -0.890007 -0.032797 8.484812 -5.255962 -11.241209 0.000000 0.000000 0.000000
35.633582 65.757073 210.249870 0.095942 0.108154 -1.557492 -0.092967 -0.110722 1.557311 -0.000000 0.000000 0.000000 -1.945730 -1.730381 0.566209 0.000000 0.000000 0.000000 0.022353 1.204444 -0.228840 2.107469 -13.778554 5.271693 -0.994318 12.710390 -4.653759 1.042693 -1.545515 -2.979195 0.000000 0.000000 0.000000 0.000000 0.000000 0.000000 1.323160 -2.003073 -0.012848 -1.324418 2.002242 0.059125 -0.000000 0.000000 0.000000 -0.000000 0.000000 0.000000 0.000000 0.000000 0.000000 0.000000 0.000000 0.000000 -0.092967 -0.110722 1.557311 -0.000000 0.000000 0.000000 -2.676843 -9.563597 16.700606 0.000000 0.000000 0.000000 -0.092967 -0.110722 1.557311 -0.000000 0.000000 0.000000 7.873326 -6.021270 -10.995984 0.000000 0.000000 0.000000
35.602214 65.755086 210.299294 0.097965 0.157608 -1.465847 -0.093902 -0.160062 1.465581 -0.000000 0.000000 0.000000 -1.948213 -1.686531 0.565949 0.000000 0.000000 0.000000 -0.058760 1.026729 -0.216288 2.169082 -13.605962 5.211926 -0.988469 12.713323 -4.614530 1.410084 -1.536732 -4.490559 0.000000 0.000000 0.000000 0.000000 0.000000 0.000000 1.586861 -2.009257 0.063147 -1.585622 2.010234 -0.007498 -0.000000 0.000000 0.000000 -0.000000 0.000000 0.000000 0.000000 0.000000 0.000000 0.000000 0.000000 0.000000 -0.093902 -0.160062 1.465581 -0.000000 0.000000 0.000000 -2.720873 -2.136504 10.967917 0.000000 0.000000 0.000000 -0.093902 -0.160062 1.465581 -0.000000 0.000000 0.000000 6.657244 -2.514963 -10.956460 0.000000 0.000000 0.000000
